<svg width="475" height="80" viewBox="0 0 475 80" fill="none" xmlns="http://www.w3.org/2000/svg">
<path d="M142.569 65.6234H217.431L179.956 1L142.569 65.6234ZM142.569 65.6234L217.431 65.3582L220 24.0735L142.569 65.6234ZM140 23.9851L142.569 65.2698L217.431 65.535L140 23.9851ZM217.431 62.0873H142.569V78H217.431V62.0873Z" stroke="#DB2777" stroke-width="2.5" stroke-miterlimit="10" stroke-linejoin="bevel"/>
<mask id="path-2-outside-1_20_19" maskUnits="userSpaceOnUse" x="233" y="23" width="240" height="44" fill="black">
<rect fill="white" x="233" y="23" width="240" height="44"/>
<path d="M234.535 34.418C234.535 32.5625 234.994 30.873 235.912 29.3496C236.85 27.8262 238.1 26.6152 239.662 25.7168C241.244 24.7988 242.982 24.3398 244.877 24.3398H266.439V30.4922H244.877C243.744 30.4922 242.768 30.8926 241.947 31.6934C241.127 32.4941 240.717 33.4609 240.717 34.5938V37.4648C240.717 38.5 241.127 39.3887 241.947 40.1309C242.768 40.873 243.744 41.2441 244.877 41.2441H258.148C260.062 41.2441 261.801 41.7031 263.363 42.6211C264.926 43.5195 266.166 44.7402 267.084 46.2832C268.021 47.8066 268.49 49.4961 268.49 51.3516V55.8926C268.49 57.748 268.021 59.4473 267.084 60.9902C266.166 62.5137 264.926 63.7344 263.363 64.6523C261.801 65.5508 260.062 66 258.148 66H234.564V59.8184H258.148C259.301 59.8184 260.277 59.4375 261.078 58.6758C261.898 57.8945 262.309 56.957 262.309 55.8633V51.3809C262.309 50.2871 261.898 49.3496 261.078 48.5684C260.277 47.7871 259.301 47.3965 258.148 47.3965H244.877C242.982 47.3965 241.244 46.957 239.662 46.0781C238.1 45.1797 236.85 43.9785 235.912 42.4746C234.994 40.9707 234.535 39.3105 234.535 37.4941V34.418ZM275.007 24.3398H308.933V30.4922H295.075V66H288.864V30.4922H275.007V24.3398ZM320.606 24.3398L332.032 40.1309L343.399 24.3398H350.899L335.196 46.1074V66H328.868V46.1074L313.077 24.3398H320.606ZM358.002 24.3398H364.154V54.3398C364.154 55.8633 364.691 57.1621 365.765 58.2363C366.839 59.3105 368.129 59.8477 369.632 59.8477H390.287V66H369.632C367.504 66 365.55 65.4824 363.773 64.4473C362.015 63.3926 360.609 61.9863 359.554 60.2285C358.519 58.4512 358.002 56.4883 358.002 54.3398V24.3398ZM397.36 24.3398H429.675V30.4922H403.542V59.8184H429.675V66H397.36V24.3398ZM407.057 41.2441H429.675V47.3965H407.057V41.2441ZM439.121 24.3398H471.436V30.4922H445.303V59.8184H471.436V66H439.121V24.3398ZM448.818 41.2441H471.436V47.3965H448.818V41.2441Z"/>
</mask>
<path d="M234.535 34.418C234.535 32.5625 234.994 30.873 235.912 29.3496C236.85 27.8262 238.1 26.6152 239.662 25.7168C241.244 24.7988 242.982 24.3398 244.877 24.3398H266.439V30.4922H244.877C243.744 30.4922 242.768 30.8926 241.947 31.6934C241.127 32.4941 240.717 33.4609 240.717 34.5938V37.4648C240.717 38.5 241.127 39.3887 241.947 40.1309C242.768 40.873 243.744 41.2441 244.877 41.2441H258.148C260.062 41.2441 261.801 41.7031 263.363 42.6211C264.926 43.5195 266.166 44.7402 267.084 46.2832C268.021 47.8066 268.49 49.4961 268.49 51.3516V55.8926C268.49 57.748 268.021 59.4473 267.084 60.9902C266.166 62.5137 264.926 63.7344 263.363 64.6523C261.801 65.5508 260.062 66 258.148 66H234.564V59.8184H258.148C259.301 59.8184 260.277 59.4375 261.078 58.6758C261.898 57.8945 262.309 56.957 262.309 55.8633V51.3809C262.309 50.2871 261.898 49.3496 261.078 48.5684C260.277 47.7871 259.301 47.3965 258.148 47.3965H244.877C242.982 47.3965 241.244 46.957 239.662 46.0781C238.1 45.1797 236.85 43.9785 235.912 42.4746C234.994 40.9707 234.535 39.3105 234.535 37.4941V34.418ZM275.007 24.3398H308.933V30.4922H295.075V66H288.864V30.4922H275.007V24.3398ZM320.606 24.3398L332.032 40.1309L343.399 24.3398H350.899L335.196 46.1074V66H328.868V46.1074L313.077 24.3398H320.606ZM358.002 24.3398H364.154V54.3398C364.154 55.8633 364.691 57.1621 365.765 58.2363C366.839 59.3105 368.129 59.8477 369.632 59.8477H390.287V66H369.632C367.504 66 365.55 65.4824 363.773 64.4473C362.015 63.3926 360.609 61.9863 359.554 60.2285C358.519 58.4512 358.002 56.4883 358.002 54.3398V24.3398ZM397.36 24.3398H429.675V30.4922H403.542V59.8184H429.675V66H397.36V24.3398ZM407.057 41.2441H429.675V47.3965H407.057V41.2441ZM439.121 24.3398H471.436V30.4922H445.303V59.8184H471.436V66H439.121V24.3398ZM448.818 41.2441H471.436V47.3965H448.818V41.2441Z" fill="#DB2777"/>
<path d="M235.912 29.3496L235.06 28.8255L235.056 28.8335L235.912 29.3496ZM239.662 25.7168L240.161 26.5837L240.164 26.5817L239.662 25.7168ZM266.439 24.3398H267.439V23.3398H266.439V24.3398ZM266.439 30.4922V31.4922H267.439V30.4922H266.439ZM263.363 42.6211L262.857 43.4833L262.865 43.488L263.363 42.6211ZM267.084 46.2832L266.225 46.7945L266.228 46.8009L266.232 46.8073L267.084 46.2832ZM267.084 60.9902L266.229 60.471L266.227 60.4741L267.084 60.9902ZM263.363 64.6523L263.862 65.5193L263.87 65.5146L263.363 64.6523ZM234.564 66H233.564V67H234.564V66ZM234.564 59.8184V58.8184H233.564V59.8184H234.564ZM261.078 58.6758L261.767 59.4003L261.768 59.3999L261.078 58.6758ZM261.078 48.5684L260.38 49.2842L260.388 49.2925L261.078 48.5684ZM239.662 46.0781L239.164 46.945L239.17 46.9487L239.176 46.9523L239.662 46.0781ZM235.912 42.4746L235.059 42.9956L235.063 43.0036L235.912 42.4746ZM235.535 34.418C235.535 32.7362 235.949 31.2265 236.769 29.8657L235.056 28.8335C234.04 30.5196 233.535 32.3888 233.535 34.418H235.535ZM236.764 29.8737C237.613 28.4933 238.741 27.3997 240.161 26.5837L239.164 24.8499C237.458 25.8307 236.086 27.159 235.06 28.8255L236.764 29.8737ZM240.164 26.5817C241.588 25.7555 243.152 25.3398 244.877 25.3398V23.3398C242.813 23.3398 240.9 23.8422 239.16 24.8519L240.164 26.5817ZM244.877 25.3398H266.439V23.3398H244.877V25.3398ZM265.439 24.3398V30.4922H267.439V24.3398H265.439ZM266.439 29.4922H244.877V31.4922H266.439V29.4922ZM244.877 29.4922C243.48 29.4922 242.253 29.9971 241.249 30.9778L242.646 32.4089C243.282 31.7881 244.009 31.4922 244.877 31.4922V29.4922ZM241.249 30.9778C240.238 31.9642 239.717 33.1879 239.717 34.5938H241.717C241.717 33.7339 242.016 33.0241 242.646 32.4089L241.249 30.9778ZM239.717 34.5938V37.4648H241.717V34.5938H239.717ZM239.717 37.4648C239.717 38.8037 240.263 39.9553 241.276 40.8724L242.618 39.3893C241.991 38.8221 241.717 38.1963 241.717 37.4648H239.717ZM241.276 40.8724C242.285 41.7853 243.503 42.2441 244.877 42.2441V40.2441C243.986 40.2441 243.25 39.9608 242.618 39.3893L241.276 40.8724ZM244.877 42.2441H258.148V40.2441H244.877V42.2441ZM258.148 42.2441C259.895 42.2441 261.457 42.6607 262.857 43.4833L263.87 41.7589C262.145 40.7456 260.23 40.2441 258.148 40.2441V42.2441ZM262.865 43.488C264.279 44.3012 265.395 45.3997 266.225 46.7945L267.943 45.7719C266.937 44.0808 265.572 42.7379 263.862 41.7542L262.865 43.488ZM266.232 46.8073C267.069 48.1671 267.49 49.6739 267.49 51.3516H269.49C269.49 49.3183 268.974 47.4462 267.936 45.7591L266.232 46.8073ZM267.49 51.3516V55.8926H269.49V51.3516H267.49ZM267.49 55.8926C267.49 57.5702 267.069 59.089 266.229 60.471L267.939 61.5095C268.974 59.8055 269.49 57.9258 269.49 55.8926H267.49ZM266.227 60.4741C265.397 61.8521 264.278 62.9549 262.857 63.7901L263.87 65.5146C265.573 64.5138 266.935 63.1753 267.941 61.5063L266.227 60.4741ZM262.865 63.7854C261.463 64.5912 259.899 65 258.148 65V67C260.226 67 262.138 66.5103 263.862 65.5193L262.865 63.7854ZM258.148 65H234.564V67H258.148V65ZM235.564 66V59.8184H233.564V66H235.564ZM234.564 60.8184H258.148V58.8184H234.564V60.8184ZM258.148 60.8184C259.545 60.8184 260.772 60.3471 261.767 59.4003L260.389 57.9512C259.783 58.5279 259.056 58.8184 258.148 58.8184V60.8184ZM261.768 59.3999C262.778 58.4375 263.309 57.2415 263.309 55.8633H261.309C261.309 56.6725 261.019 57.3515 260.388 57.9516L261.768 59.3999ZM263.309 55.8633V51.3809H261.309V55.8633H263.309ZM263.309 51.3809C263.309 50.0026 262.778 48.8066 261.768 47.8442L260.388 49.2925C261.019 49.8926 261.309 50.5716 261.309 51.3809H263.309ZM261.776 47.8526C260.783 46.8831 259.553 46.3965 258.148 46.3965V48.3965C259.049 48.3965 259.772 48.6911 260.38 49.2841L261.776 47.8526ZM258.148 46.3965H244.877V48.3965H258.148V46.3965ZM244.877 46.3965C243.144 46.3965 241.574 45.9964 240.148 45.204L239.176 46.9523C240.914 47.9176 242.821 48.3965 244.877 48.3965V46.3965ZM240.161 45.2112C238.738 44.3934 237.61 43.3073 236.761 41.9456L235.063 43.0036C236.09 44.6497 237.461 45.966 239.164 46.945L240.161 45.2112ZM236.766 41.9536C235.947 40.6116 235.535 39.1327 235.535 37.4941H233.535C233.535 39.4884 234.042 41.3298 235.059 42.9956L236.766 41.9536ZM235.535 37.4941V34.418H233.535V37.4941H235.535ZM275.007 24.3398V23.3398H274.007V24.3398H275.007ZM308.933 24.3398H309.933V23.3398H308.933V24.3398ZM308.933 30.4922V31.4922H309.933V30.4922H308.933ZM295.075 30.4922V29.4922H294.075V30.4922H295.075ZM295.075 66V67H296.075V66H295.075ZM288.864 66H287.864V67H288.864V66ZM288.864 30.4922H289.864V29.4922H288.864V30.4922ZM275.007 30.4922H274.007V31.4922H275.007V30.4922ZM275.007 25.3398H308.933V23.3398H275.007V25.3398ZM307.933 24.3398V30.4922H309.933V24.3398H307.933ZM308.933 29.4922H295.075V31.4922H308.933V29.4922ZM294.075 30.4922V66H296.075V30.4922H294.075ZM295.075 65H288.864V67H295.075V65ZM289.864 66V30.4922H287.864V66H289.864ZM288.864 29.4922H275.007V31.4922H288.864V29.4922ZM276.007 30.4922V24.3398H274.007V30.4922H276.007ZM320.606 24.3398L321.416 23.7536L321.117 23.3398H320.606V24.3398ZM332.032 40.1309L331.221 40.7171L332.034 41.8396L332.843 40.7151L332.032 40.1309ZM343.399 24.3398V23.3398H342.887L342.587 23.7556L343.399 24.3398ZM350.899 24.3398L351.71 24.9249L352.853 23.3398H350.899V24.3398ZM335.196 46.1074L334.385 45.5224L334.196 45.7844V46.1074H335.196ZM335.196 66V67H336.196V66H335.196ZM328.868 66H327.868V67H328.868V66ZM328.868 46.1074H329.868V45.7829L329.677 45.5202L328.868 46.1074ZM313.077 24.3398V23.3398H311.116L312.267 24.927L313.077 24.3398ZM319.796 24.926L331.221 40.7171L332.842 39.5447L321.416 23.7536L319.796 24.926ZM332.843 40.7151L344.21 24.9241L342.587 23.7556L331.22 39.5466L332.843 40.7151ZM343.399 25.3398H350.899V23.3398H343.399V25.3398ZM350.088 23.7548L334.385 45.5224L336.007 46.6925L351.71 24.9249L350.088 23.7548ZM334.196 46.1074V66H336.196V46.1074H334.196ZM335.196 65H328.868V67H335.196V65ZM329.868 66V46.1074H327.868V66H329.868ZM329.677 45.5202L313.886 23.7526L312.267 24.927L328.058 46.6946L329.677 45.5202ZM313.077 25.3398H320.606V23.3398H313.077V25.3398ZM358.002 24.3398V23.3398H357.002V24.3398H358.002ZM364.154 24.3398H365.154V23.3398H364.154V24.3398ZM390.287 59.8477H391.287V58.8477H390.287V59.8477ZM390.287 66V67H391.287V66H390.287ZM363.773 64.4473L363.259 65.3048L363.27 65.3114L363.773 64.4473ZM359.554 60.2285L358.69 60.7318L358.697 60.743L359.554 60.2285ZM358.002 25.3398H364.154V23.3398H358.002V25.3398ZM363.154 24.3398V54.3398H365.154V24.3398H363.154ZM363.154 54.3398C363.154 56.1277 363.796 57.6811 365.058 58.9434L366.472 57.5292C365.586 56.6431 365.154 55.5989 365.154 54.3398H363.154ZM365.058 58.9434C366.318 60.203 367.86 60.8477 369.632 60.8477V58.8477C368.397 58.8477 367.361 58.418 366.472 57.5292L365.058 58.9434ZM369.632 60.8477H390.287V58.8477H369.632V60.8477ZM389.287 59.8477V66H391.287V59.8477H389.287ZM390.287 65H369.632V67H390.287V65ZM369.632 65C367.674 65 365.895 64.5261 364.276 63.5831L363.27 65.3114C365.205 66.4387 367.333 67 369.632 67V65ZM364.288 63.5898C362.67 62.6195 361.382 61.3311 360.412 59.714L358.697 60.743C359.836 62.6416 361.36 64.1656 363.259 65.3048L364.288 63.5898ZM360.418 59.7252C359.476 58.1076 359.002 56.3197 359.002 54.3398H357.002C357.002 56.6569 357.562 58.7947 358.69 60.7318L360.418 59.7252ZM359.002 54.3398V24.3398H357.002V54.3398H359.002ZM397.36 24.3398V23.3398H396.36V24.3398H397.36ZM429.675 24.3398H430.675V23.3398H429.675V24.3398ZM429.675 30.4922V31.4922H430.675V30.4922H429.675ZM403.542 30.4922V29.4922H402.542V30.4922H403.542ZM403.542 59.8184H402.542V60.8184H403.542V59.8184ZM429.675 59.8184H430.675V58.8184H429.675V59.8184ZM429.675 66V67H430.675V66H429.675ZM397.36 66H396.36V67H397.36V66ZM407.057 41.2441V40.2441H406.057V41.2441H407.057ZM429.675 41.2441H430.675V40.2441H429.675V41.2441ZM429.675 47.3965V48.3965H430.675V47.3965H429.675ZM407.057 47.3965H406.057V48.3965H407.057V47.3965ZM397.36 25.3398H429.675V23.3398H397.36V25.3398ZM428.675 24.3398V30.4922H430.675V24.3398H428.675ZM429.675 29.4922H403.542V31.4922H429.675V29.4922ZM402.542 30.4922V59.8184H404.542V30.4922H402.542ZM403.542 60.8184H429.675V58.8184H403.542V60.8184ZM428.675 59.8184V66H430.675V59.8184H428.675ZM429.675 65H397.36V67H429.675V65ZM398.36 66V24.3398H396.36V66H398.36ZM407.057 42.2441H429.675V40.2441H407.057V42.2441ZM428.675 41.2441V47.3965H430.675V41.2441H428.675ZM429.675 46.3965H407.057V48.3965H429.675V46.3965ZM408.057 47.3965V41.2441H406.057V47.3965H408.057ZM439.121 24.3398V23.3398H438.121V24.3398H439.121ZM471.436 24.3398H472.436V23.3398H471.436V24.3398ZM471.436 30.4922V31.4922H472.436V30.4922H471.436ZM445.303 30.4922V29.4922H444.303V30.4922H445.303ZM445.303 59.8184H444.303V60.8184H445.303V59.8184ZM471.436 59.8184H472.436V58.8184H471.436V59.8184ZM471.436 66V67H472.436V66H471.436ZM439.121 66H438.121V67H439.121V66ZM448.818 41.2441V40.2441H447.818V41.2441H448.818ZM471.436 41.2441H472.436V40.2441H471.436V41.2441ZM471.436 47.3965V48.3965H472.436V47.3965H471.436ZM448.818 47.3965H447.818V48.3965H448.818V47.3965ZM439.121 25.3398H471.436V23.3398H439.121V25.3398ZM470.436 24.3398V30.4922H472.436V24.3398H470.436ZM471.436 29.4922H445.303V31.4922H471.436V29.4922ZM444.303 30.4922V59.8184H446.303V30.4922H444.303ZM445.303 60.8184H471.436V58.8184H445.303V60.8184ZM470.436 59.8184V66H472.436V59.8184H470.436ZM471.436 65H439.121V67H471.436V65ZM440.121 66V24.3398H438.121V66H440.121ZM448.818 42.2441H471.436V40.2441H448.818V42.2441ZM470.436 41.2441V47.3965H472.436V41.2441H470.436ZM471.436 46.3965H448.818V48.3965H471.436V46.3965ZM449.818 47.3965V41.2441H447.818V47.3965H449.818Z" fill="#DB2777" mask="url(#path-2-outside-1_20_19)"/>
<mask id="path-4-outside-2_20_19" maskUnits="userSpaceOnUse" x="3" y="23" width="127" height="44" fill="black">
<rect fill="white" x="3" y="23" width="127" height="44"/>
<path d="M4.55391 24.3398H10.7063V54.3398C10.7063 55.8633 11.2434 57.1621 12.3176 58.2363C13.3918 59.3105 14.6809 59.8477 16.1848 59.8477H36.8391V66H16.1848C14.0559 66 12.1027 65.4824 10.3254 64.4473C8.56758 63.3926 7.16133 61.9863 6.10664 60.2285C5.07149 58.4512 4.55391 56.4883 4.55391 54.3398V24.3398ZM43.9125 24.3398H50.0941V66H43.9125V24.3398ZM60.1266 24.3398H66.2789V54.3398C66.2789 55.8633 66.816 57.1621 67.8902 58.2363C68.9645 59.3105 70.2535 59.8477 71.7574 59.8477H92.4117V66H71.7574C69.6285 66 67.6754 65.4824 65.898 64.4473C64.1402 63.3926 62.734 61.9863 61.6793 60.2285C60.6441 58.4512 60.1266 56.4883 60.1266 54.3398V24.3398ZM97.0535 24.3398L108.479 40.1309L119.846 24.3398H127.346L111.643 46.1074V66H105.315V46.1074L89.5242 24.3398H97.0535Z"/>
</mask>
<path d="M4.55391 24.3398H10.7063V54.3398C10.7063 55.8633 11.2434 57.1621 12.3176 58.2363C13.3918 59.3105 14.6809 59.8477 16.1848 59.8477H36.8391V66H16.1848C14.0559 66 12.1027 65.4824 10.3254 64.4473C8.56758 63.3926 7.16133 61.9863 6.10664 60.2285C5.07149 58.4512 4.55391 56.4883 4.55391 54.3398V24.3398ZM43.9125 24.3398H50.0941V66H43.9125V24.3398ZM60.1266 24.3398H66.2789V54.3398C66.2789 55.8633 66.816 57.1621 67.8902 58.2363C68.9645 59.3105 70.2535 59.8477 71.7574 59.8477H92.4117V66H71.7574C69.6285 66 67.6754 65.4824 65.898 64.4473C64.1402 63.3926 62.734 61.9863 61.6793 60.2285C60.6441 58.4512 60.1266 56.4883 60.1266 54.3398V24.3398ZM97.0535 24.3398L108.479 40.1309L119.846 24.3398H127.346L111.643 46.1074V66H105.315V46.1074L89.5242 24.3398H97.0535Z" fill="#DB2777"/>
<path d="M4.55391 24.3398V23.3398H3.55391V24.3398H4.55391ZM10.7063 24.3398H11.7063V23.3398H10.7063V24.3398ZM36.8391 59.8477H37.8391V58.8477H36.8391V59.8477ZM36.8391 66V67H37.8391V66H36.8391ZM10.3254 64.4473L9.81085 65.3048L9.82211 65.3114L10.3254 64.4473ZM6.10664 60.2285L5.24245 60.7318L5.24915 60.743L6.10664 60.2285ZM4.55391 25.3398H10.7063V23.3398H4.55391V25.3398ZM9.70625 24.3398V54.3398H11.7063V24.3398H9.70625ZM9.70625 54.3398C9.70625 56.1277 10.3481 57.6811 11.6105 58.9434L13.0247 57.5292C12.1386 56.6431 11.7063 55.5989 11.7063 54.3398H9.70625ZM11.6105 58.9434C12.8701 60.203 14.4126 60.8477 16.1848 60.8477V58.8477C14.9491 58.8477 13.9135 58.418 13.0247 57.5292L11.6105 58.9434ZM16.1848 60.8477H36.8391V58.8477H16.1848V60.8477ZM35.8391 59.8477V66H37.8391V59.8477H35.8391ZM36.8391 65H16.1848V67H36.8391V65ZM16.1848 65C14.2262 65 12.4477 64.5261 10.8287 63.5831L9.82211 65.3114C11.7578 66.4387 13.8855 67 16.1848 67V65ZM10.8399 63.5898C9.22283 62.6195 7.93437 61.3311 6.96414 59.714L5.24915 60.743C6.38829 62.6416 7.91234 64.1656 9.8109 65.3048L10.8399 63.5898ZM6.97077 59.7252C6.02865 58.1076 5.55391 56.3197 5.55391 54.3398H3.55391C3.55391 56.6569 4.11433 58.7947 5.24252 60.7318L6.97077 59.7252ZM5.55391 54.3398V24.3398H3.55391V54.3398H5.55391ZM43.9125 24.3398V23.3398H42.9125V24.3398H43.9125ZM50.0941 24.3398H51.0941V23.3398H50.0941V24.3398ZM50.0941 66V67H51.0941V66H50.0941ZM43.9125 66H42.9125V67H43.9125V66ZM43.9125 25.3398H50.0941V23.3398H43.9125V25.3398ZM49.0941 24.3398V66H51.0941V24.3398H49.0941ZM50.0941 65H43.9125V67H50.0941V65ZM44.9125 66V24.3398H42.9125V66H44.9125ZM60.1266 24.3398V23.3398H59.1266V24.3398H60.1266ZM66.2789 24.3398H67.2789V23.3398H66.2789V24.3398ZM92.4117 59.8477H93.4117V58.8477H92.4117V59.8477ZM92.4117 66V67H93.4117V66H92.4117ZM65.898 64.4473L65.3835 65.3048L65.3948 65.3114L65.898 64.4473ZM61.6793 60.2285L60.8151 60.7318L60.8218 60.743L61.6793 60.2285ZM60.1266 25.3398H66.2789V23.3398H60.1266V25.3398ZM65.2789 24.3398V54.3398H67.2789V24.3398H65.2789ZM65.2789 54.3398C65.2789 56.1277 65.9208 57.6811 67.1831 58.9434L68.5973 57.5292C67.7113 56.6431 67.2789 55.5989 67.2789 54.3398H65.2789ZM67.1831 58.9434C68.4427 60.203 69.9853 60.8477 71.7574 60.8477V58.8477C70.5217 58.8477 69.4862 58.418 68.5973 57.5292L67.1831 58.9434ZM71.7574 60.8477H92.4117V58.8477H71.7574V60.8477ZM91.4117 59.8477V66H93.4117V59.8477H91.4117ZM92.4117 65H71.7574V67H92.4117V65ZM71.7574 65C69.7989 65 68.0204 64.5261 66.4013 63.5831L65.3948 65.3114C67.3304 66.4387 69.4582 67 71.7574 67V65ZM66.4125 63.5898C64.7955 62.6195 63.507 61.3311 62.5368 59.714L60.8218 60.743C61.9609 62.6416 63.485 64.1656 65.3836 65.3048L66.4125 63.5898ZM62.5434 59.7252C61.6013 58.1076 61.1266 56.3197 61.1266 54.3398H59.1266C59.1266 56.6569 59.687 58.7947 60.8152 60.7318L62.5434 59.7252ZM61.1266 54.3398V24.3398H59.1266V54.3398H61.1266ZM97.0535 24.3398L97.8637 23.7536L97.5643 23.3398H97.0535V24.3398ZM108.479 40.1309L107.669 40.7171L108.481 41.8396L109.291 40.7151L108.479 40.1309ZM119.846 24.3398V23.3398H119.334L119.035 23.7556L119.846 24.3398ZM127.346 24.3398L128.157 24.9249L129.301 23.3398H127.346V24.3398ZM111.643 46.1074L110.832 45.5224L110.643 45.7844V46.1074H111.643ZM111.643 66V67H112.643V66H111.643ZM105.315 66H104.315V67H105.315V66ZM105.315 46.1074H106.315V45.7829L106.125 45.5202L105.315 46.1074ZM89.5242 24.3398V23.3398H87.5634L88.7148 24.927L89.5242 24.3398ZM96.2434 24.926L107.669 40.7171L109.289 39.5447L97.8637 23.7536L96.2434 24.926ZM109.291 40.7151L120.658 24.9241L119.035 23.7556L107.668 39.5466L109.291 40.7151ZM119.846 25.3398H127.346V23.3398H119.846V25.3398ZM126.535 23.7548L110.832 45.5224L112.454 46.6925L128.157 24.9249L126.535 23.7548ZM110.643 46.1074V66H112.643V46.1074H110.643ZM111.643 65H105.315V67H111.643V65ZM106.315 66V46.1074H104.315V66H106.315ZM106.125 45.5202L90.3337 23.7526L88.7148 24.927L104.506 46.6946L106.125 45.5202ZM89.5242 25.3398H97.0535V23.3398H89.5242V25.3398Z" fill="#DB2777" mask="url(#path-4-outside-2_20_19)"/>
</svg>
