<svg width="379" height="53" viewBox="0 0 379 53" fill="none" xmlns="http://www.w3.org/2000/svg">
<path d="M122.67 42.9633H171.33L146.971 1L122.67 42.9633ZM122.67 42.9633L171.33 42.791L173 15.9828L122.67 42.9633ZM121 15.9254L122.67 42.7336L171.33 42.9059L121 15.9254ZM171.33 40.667H122.67V51H171.33V40.667Z" stroke="#DB2777" stroke-width="3" stroke-miterlimit="10" stroke-linejoin="bevel"/>
<path d="M10.7219 41.1H32.8619V48H3.52188V7.14H10.7219V41.1ZM37.5873 7.14H45.2073V48H37.5873V7.14ZM57.5383 41.1H79.6783V48H50.3383V7.14H57.5383V41.1ZM92.7438 29.4L82.4238 7.14H90.1637L96.4638 20.16H96.8238C97.3038 19.12 97.8038 18.06 98.3238 16.98C98.8438 15.9 99.3838 14.8 99.9438 13.68L103.064 7.14H110.744L100.064 29.46V48H92.7438V29.4Z" fill="#DB2777"/>
<path d="M202.685 22.68C204.365 22.68 205.925 23 207.365 23.64C208.845 24.28 210.105 25.18 211.145 26.34C212.225 27.46 213.045 28.82 213.605 30.42C214.205 31.98 214.505 33.7 214.505 35.58C214.505 37.34 214.225 38.98 213.665 40.5C213.145 42.02 212.385 43.34 211.385 44.46C210.385 45.54 209.205 46.4 207.845 47.04C206.485 47.68 204.965 48 203.285 48H184.685V40.44H201.125C201.925 40.44 202.685 40.34 203.405 40.14C204.165 39.94 204.805 39.64 205.325 39.24C205.845 38.84 206.265 38.34 206.585 37.74C206.905 37.14 207.065 36.42 207.065 35.58C207.065 34.02 206.545 32.8 205.505 31.92C204.505 31.04 203.245 30.6 201.725 30.6H196.865C194.825 30.6 192.965 30.38 191.285 29.94C189.605 29.5 188.185 28.8 187.025 27.84C185.865 26.88 184.965 25.64 184.325 24.12C183.685 22.6 183.365 20.78 183.365 18.66C183.365 17.18 183.625 15.74 184.145 14.34C184.665 12.94 185.385 11.72 186.305 10.68C187.225 9.6 188.345 8.74 189.665 8.1C190.985 7.46 192.445 7.14 194.045 7.14H210.905V15.12H197.165C196.365 15.12 195.625 15.18 194.945 15.3C194.265 15.38 193.665 15.56 193.145 15.84C192.625 16.08 192.225 16.46 191.945 16.98C191.665 17.5 191.525 18.2 191.525 19.08C191.525 20.08 191.865 20.94 192.545 21.66C193.225 22.34 194.145 22.68 195.305 22.68H202.685ZM227.946 14.7H217.506V7.14H245.826V14.7H235.266V48H227.946V14.7ZM258.177 29.4L247.857 7.14H255.597L261.897 20.16H262.257C262.737 19.12 263.237 18.06 263.757 16.98C264.277 15.9 264.817 14.8 265.377 13.68L268.497 7.14H276.177L265.497 29.46V48H258.177V29.4ZM286.312 41.1H308.452V48H279.112V7.14H286.312V41.1ZM320.917 41.1H341.257V48H313.177V7.14H341.257V14.04H320.917V24.12H341.257V30.96H320.917V41.1ZM355.136 41.1H375.476V48H347.396V7.14H375.476V14.04H355.136V24.12H375.476V30.96H355.136V41.1Z" fill="#DB2777"/>
</svg>
